<svg width="29" height="7" viewBox="0 0 29 7" fill="none" xmlns="http://www.w3.org/2000/svg">
<path d="M0.408 6V0.848H2.64C3.16267 0.848 3.60267 0.936 3.96 1.112C4.31733 1.28267 4.58933 1.56 4.776 1.944C4.96267 2.32267 5.056 2.82667 5.056 3.456C5.056 4.34133 4.85067 4.98667 4.44 5.392C4.03467 5.79733 3.43467 6 2.64 6H0.408ZM1.696 5.008H2.464C2.74133 5.008 2.97333 4.968 3.16 4.888C3.352 4.80267 3.496 4.648 3.592 4.424C3.69333 4.2 3.744 3.87733 3.744 3.456C3.744 3.02933 3.69867 2.70133 3.608 2.472C3.52267 2.23733 3.384 2.07467 3.192 1.984C3.00533 1.888 2.76267 1.84 2.464 1.84H1.696V5.008ZM7.74469 6.08C7.08335 6.08 6.55269 5.91733 6.15269 5.592C5.75269 5.26133 5.55269 4.76533 5.55269 4.104C5.55269 3.50133 5.71802 3.02133 6.04869 2.664C6.37935 2.30667 6.87535 2.128 7.53669 2.128C8.13935 2.128 8.60602 2.28267 8.93669 2.592C9.26735 2.90133 9.43269 3.31733 9.43269 3.84V4.52H6.74469C6.80335 4.77067 6.93935 4.94667 7.15269 5.048C7.37135 5.144 7.66735 5.192 8.04069 5.192C8.24869 5.192 8.45935 5.17333 8.67269 5.136C8.89135 5.09867 9.07269 5.05067 9.21669 4.992V5.832C9.03535 5.91733 8.81935 5.97867 8.56869 6.016C8.31802 6.05867 8.04335 6.08 7.74469 6.08ZM6.74469 3.776H8.31269V3.608C8.31269 3.42133 8.25669 3.27467 8.14469 3.168C8.03269 3.056 7.84335 3 7.57669 3C7.26735 3 7.05135 3.064 6.92869 3.192C6.80602 3.31467 6.74469 3.50933 6.74469 3.776ZM10.9862 6L9.49019 2.208H10.8342L11.6662 4.672L12.5062 2.208H13.8502L12.3542 6H10.9862ZM14.3924 6V0.848H18.1364V1.84H15.6804V2.92H17.8404V3.928H15.6804V6H14.3924ZM20.4244 6.08C19.763 6.08 19.2324 5.91733 18.8324 5.592C18.4324 5.26133 18.2324 4.76533 18.2324 4.104C18.2324 3.50133 18.3977 3.02133 18.7284 2.664C19.059 2.30667 19.555 2.128 20.2164 2.128C20.819 2.128 21.2857 2.28267 21.6164 2.592C21.947 2.90133 22.1124 3.31733 22.1124 3.84V4.52H19.4244C19.483 4.77067 19.619 4.94667 19.8324 5.048C20.051 5.144 20.347 5.192 20.7204 5.192C20.9284 5.192 21.139 5.17333 21.3524 5.136C21.571 5.09867 21.7524 5.05067 21.8964 4.992V5.832C21.715 5.91733 21.499 5.97867 21.2484 6.016C20.9977 6.05867 20.723 6.08 20.4244 6.08ZM19.4244 3.776H20.9924V3.608C20.9924 3.42133 20.9364 3.27467 20.8244 3.168C20.7124 3.056 20.523 3 20.2564 3C19.947 3 19.731 3.064 19.6084 3.192C19.4857 3.31467 19.4244 3.50933 19.4244 3.776ZM23.9354 6.08C23.5194 6.08 23.2207 5.98933 23.0394 5.808C22.858 5.62667 22.7674 5.336 22.7674 4.936V0.608H24.0554V4.808C24.0554 4.93067 24.0794 5.016 24.1274 5.064C24.1807 5.10667 24.258 5.128 24.3594 5.128C24.5034 5.128 24.6314 5.10933 24.7434 5.072V5.944C24.6207 5.992 24.498 6.02667 24.3754 6.048C24.258 6.06933 24.1114 6.08 23.9354 6.08ZM25.0683 6V5.312L26.8203 3.232H25.1323V2.208H28.4523V2.96L26.7403 5.008H28.5083V6H25.0683Z" fill="#6E2FE3"/>
</svg>
